OpenSim_Sub08_CSStiffKnee_RCS.mot
version=1
nRows=67
nColumns=11
inDegrees=no
endheader
time	Top_Thigh	Med_Thigh	Bot_Thigh	Top_Shank	2nd_Top_Shank	2nd_Bot_Shank	Bot_Shank	BNOx	BNOy	BNOZ
0	1783.87486108	1714.83387922	1452.87402104	1311.18908657	1322.44574697	1315.94654716	1164.65203136	11.84926241	-74.44033196	-162.15631262
0.01000000	1784.09663779	1714.90526457	1454.08628814	1309.81366963	1322.18096693	1316.01958656	1164.86307372	11.86462708	-74.44019631	-162.17613168
0.02000000	1783.93079373	1715.02929216	1455.21676199	1308.84711563	1321.96196262	1315.98249176	1165.02768997	11.88432788	-74.43993738	-162.19312425
0.03000000	1783.32919105	1715.20644879	1456.22524948	1308.38556663	1321.81733121	1315.82429780	1165.12620423	11.90872054	-74.43955562	-162.20677248
0.04000000	1782.37892171	1715.42468461	1457.11436093	1308.37075420	1321.73940069	1315.57147700	1165.16754482	11.93697862	-74.43910087	-162.21771766
0.05000000	1781.18537515	1715.67025348	1457.89249824	1308.72351716	1321.71559161	1315.25556714	1165.16451041	11.96811573	-74.43862966	-162.22675794
0.06000000	1779.85394084	1715.92940928	1458.56806332	1309.36469433	1321.73332449	1314.90810605	1165.12989970	12.00114547	-74.43819852	-162.23469145
0.07000000	1778.49000823	1716.18840586	1459.14945808	1310.21512451	1321.78001988	1314.56063152	1165.07651134	12.03508145	-74.43786397	-162.24231635
0.08000000	1777.19896677	1716.43349711	1459.64508442	1311.19564652	1321.84309831	1314.24468137	1165.01714401	12.06893727	-74.43768255	-162.25043077
0.09000000	1776.08620590	1716.65093688	1460.06334425	1312.22709917	1321.90998032	1313.99179341	1164.96459639	12.10172655	-74.43771078	-162.25983285
0.10000000	1775.25711509	1716.82697904	1460.41263948	1313.23032129	1321.96808643	1313.83350544	1164.93166714	12.13246287	-74.43800520	-162.27132074
0.11000000	1774.81708378	1716.94787746	1460.70137201	1314.12615168	1322.00483719	1313.80135528	1164.93115494	12.16015986	-74.43862232	-162.28569257
0.12000000	1774.87150144	1716.99988601	1460.93794375	1314.83542917	1322.00765314	1313.92688072	1164.97585847	12.18383111	-74.43961869	-162.30374649
0.13000000	1775.51152935	1716.97116489	1461.12970200	1315.28572611	1321.96760514	1314.23613153	1165.07674573	12.20260171	-74.44102425	-162.32601975
0.14000000	1776.68144290	1716.86955468	1461.27310682	1315.47412941	1321.91344883	1314.69850090	1165.22588559	12.21674767	-74.44259469	-162.35035623
0.15000000	1778.23886267	1716.71450627	1461.35819535	1315.43873583	1321.89617181	1315.24995771	1165.40419744	12.22722395	-74.44392388	-162.37301087
0.16000000	1780.04028922	1716.52562065	1461.37492172	1315.21817219	1321.96704903	1315.82603882	1165.59245658	12.23499431	-74.44460358	-162.39021809
0.17000000	1781.94222313	1716.32249879	1461.31324007	1314.85106530	1322.17735542	1316.36228111	1165.77143830	12.24102249	-74.44422556	-162.39821228
0.18000000	1783.80116495	1716.12474165	1461.16310452	1314.37604196	1322.57836595	1316.79422144	1165.92191789	12.24627224	-74.44238161	-162.39322785
0.19000000	1785.47404974	1715.95185884	1460.91472288	1313.83176303	1323.22052167	1317.05785926	1166.02481802	12.25169991	-74.43866772	-162.37152846
0.20000000	1786.85142753	1715.81628932	1460.57793044	1313.25952252	1324.08974693	1317.12498380	1166.07246419	12.25768760	-74.43300770	-162.33164055
0.21000000	1787.88082815	1715.71848685	1460.19583239	1312.70507790	1325.06260567	1317.02805046	1166.07651051	12.26364415	-74.42588092	-162.27592616
0.22000000	1788.51530079	1715.65774427	1459.81475661	1312.21461900	1326.00506862	1316.80539110	1166.05048333	12.26888411	-74.41782060	-162.20711887
0.23000000	1788.70789463	1715.63335440	1459.48103100	1311.83433563	1326.78310651	1316.49533755	1166.00790901	12.27272202	-74.40935994	-162.12795223
0.24000000	1788.41165884	1715.64461007	1459.24098344	1311.61041761	1327.26269007	1316.13622167	1165.96231392	12.27447242	-74.40103216	-162.04115982
0.25000000	1787.57964263	1715.69080410	1459.14094184	1311.58905476	1327.30979003	1315.76637530	1165.92722443	12.27344987	-74.39337047	-161.94947522
0.26000000	1786.16489517	1715.77122932	1459.22723407	1311.81643689	1326.79037712	1315.42413030	1165.91616689	12.26896891	-74.38690808	-161.85563199
0.27000000	1784.12046565	1715.88517855	1459.54618804	1312.33875383	1325.57042206	1315.14781852	1165.94266767	12.26034407	-74.38217819	-161.76236370
0.28000000	1781.40025878	1716.03201411	1460.14384863	1313.20185130	1323.51692068	1314.97565622	1166.02009028	12.24689502	-74.37971129	-161.67240303
0.29000000	1778.13955056	1716.22583075	1461.00626627	1314.37862663	1320.71418742	1314.92135911	1166.12727401	12.22902278	-74.37946050	-161.58828977
0.30000000	1774.87828034	1716.51359324	1461.98563577	1315.67921968	1317.73140333	1314.94397883	1166.16602999	12.20954105	-74.38009070	-161.51213345
0.31000000	1772.21114105	1716.94671387	1462.91604040	1316.89174817	1315.20335507	1314.99517063	1166.02774698	12.19159002	-74.38009249	-161.44598538
0.32000000	1770.63725034	1717.56358635	1463.65456004	1317.83527098	1313.66690741	1315.03297241	1165.62580784	12.17785616	-74.37818511	-161.39152016
0.33000000	1770.13878025	1718.33218984	1464.18265823	1318.49620098	1313.12928728	1315.04994451	1164.99255684	12.16857208	-74.37432440	-161.34837495
0.34000000	1770.52392692	1719.19680575	1464.52365929	1318.91727334	1313.41947421	1315.05026563	1164.20037419	12.16314450	-74.36888237	-161.31550121
0.35000000	1771.60075542	1720.10169765	1464.70091909	1319.14126567	1314.36631339	1315.03812322	1163.32167028	12.16097956	-74.36223136	-161.29184988
0.36000000	1773.17733080	1720.99112910	1464.73779349	1319.21095557	1315.79865005	1315.01770474	1162.42885550	12.16148336	-74.35474371	-161.27637189
0.37000000	1775.06171812	1721.80936366	1464.65763836	1319.16912065	1317.54532938	1314.99319766	1161.59434025	12.16406204	-74.34679175	-161.26801819
0.38000000	1777.06198244	1722.50066490	1464.48380956	1319.05853851	1319.43519660	1314.96878942	1160.89053489	12.16812170	-74.33874782	-161.26573971
0.39000000	1778.98618880	1723.00929637	1464.23966296	1318.92198676	1321.29709691	1314.94866749	1160.38984983	12.17306848	-74.33098424	-161.26848739
0.40000000	1780.64240227	1723.27952165	1463.94855443	1318.80224300	1322.95987552	1314.93701933	1160.16469546	12.17830849	-74.32387336	-161.27521218
0.41000000	1781.83868790	1723.25560429	1463.63383983	1318.74208484	1324.25237763	1314.93803239	1160.28748215	12.18324784	-74.31778750	-161.28486501
0.42000000	1782.38311074	1722.88180785	1463.31887503	1318.78428988	1325.00344846	1314.95589413	1160.83062030	12.18729267	-74.31309901	-161.29639683
0.43000000	1782.08373586	1722.10239590	1463.02701590	1318.97163573	1325.04193322	1314.99479201	1161.86652030	12.18984909	-74.31018021	-161.30875857
0.44000000	1780.82167037	1720.89155857	1462.77088762	1319.33089660	1324.24900476	1315.05487725	1163.43058881	12.19051208	-74.30924753	-161.32111000
0.45000000	1778.87308982	1719.38535218	1462.50507553	1319.80228787	1322.78886473	1315.11446995	1165.35808756	12.18989822	-74.30967401	-161.33374036
0.46000000	1776.64712835	1717.77430845	1462.16463187	1320.29689392	1320.92096690	1315.14454304	1167.41692032	12.18896784	-74.31054890	-161.34731904
0.47000000	1774.55302030	1716.24900014	1461.68459418	1320.72577715	1318.90483680	1315.11606393	1169.37494013	12.18868156	-74.31096123	-161.36251570
0.48000000	1773.00000000	1715.00000000	1461.00000000	1321	1317.00000000	1315	1171.00000000	12.19000000	-74.31000000	-161.38000000
0.49000000	1772.30201233	1714.17684112	1460.06997105	1321.05639457	1315.42019394	1314.77838451	1172.11129843	12.19363120	-74.30698074	-161.40012184
0.50000000	1772.39184428	1713.76489783	1458.94996580	1320.93487176	1314.19600371	1314.47751418	1172.73341580	12.19927292	-74.30212490	-161.42195208
0.51000000	1773.10699334	1713.70850479	1457.71952691	1320.70111213	1313.31222629	1314.13475156	1172.94227797	12.20637034	-74.29588045	-161.44424182
0.52000000	1774.28495705	1713.95199665	1456.45819703	1320.42079627	1312.75365867	1313.78745924	1172.81381077	12.21436865	-74.28869533	-161.46574215
0.53000000	1775.76323291	1714.43970805	1455.24551884	1320.15960476	1312.50509784	1313.47299977	1172.42394007	12.22271303	-74.28101749	-161.48520417
0.54000000	1777.37931844	1715.11597366	1454.16103497	1319.98321817	1312.55134079	1313.22873574	1171.84859171	12.23084868	-74.27329489	-161.50137896
0.55000000	1778.97071114	1715.92512812	1453.28428810	1319.95731709	1312.87718450	1313.09202971	1171.16369155	12.23822077	-74.26597548	-161.51301764
0.56000000	1780.37490854	1716.81150609	1452.69482088	1320.14758209	1313.46742596	1313.10024426	1170.44516544	12.24427450	-74.25950722	-161.51887129
0.57000000	1781.42940815	1717.71944221	1452.47217597	1320.61969375	1314.30686216	1313.29074195	1169.76893922	12.24845505	-74.25433805	-161.51769101
0.58000000	1781.97170747	1718.59327115	1452.69589603	1321.43933265	1315.38029008	1313.70088535	1169.21093875	12.25020760	-74.25091593	-161.50822790
0.59000000	1781.84863710	1719.37921322	1453.43934494	1322.66634656	1316.66992313	1314.36584605	1168.84449826	12.24896685	-74.24965436	-161.48935684
0.60000000	1781.12168829	1720.06685915	1454.63377481	1324.22642844	1318.09855215	1315.27040279	1168.68334483	12.24392610	-74.25017450	-161.46279986
0.61000000	1780.06701297	1720.68917008	1456.06832596	1325.91111650	1319.52954545	1316.34894152	1168.68159836	12.23403728	-74.25130513	-161.43312614
0.62000000	1778.97009613	1721.28099282	1457.52595997	1327.50611609	1320.82368773	1317.53365718	1168.79078713	12.21824181	-74.25184060	-161.40502866
0.63000000	1778.11642277	1721.87717418	1458.78963837	1328.79713260	1321.84176371	1318.75674471	1168.96243943	12.19548112	-74.25057526	-161.38320037
0.64000000	1777.76050786	1722.50847582	1459.66576240	1329.59425583	1322.46184537	1319.95555846	1169.15268419	12.16488065	-74.24643285	-161.37187773
0.65000000	1777.92797839	1723.17546768	1460.13396700	1329.88779183	1322.68976845	1321.10558397	1169.35165196	12.12692579	-74.23929341	-161.37192322
0.66000000	1778.54187314	1723.86518767	1460.25153101	1329.74882009	1322.58863278	1322.19939728	1169.56471292	12.08271150	-74.22946559	-161.38268710
